<svg width="486" height="332" viewBox="0 0 486 332" fill="none" xmlns="http://www.w3.org/2000/svg">
<g clip-path="url(#clip0_144_492)">
<path d="M216.225 244.362C173.91 268.19 197.738 326.938 211.706 329.403C222.464 331.301 257.831 330.213 274.973 329.403L407.669 231.216L330.023 220.534C306.195 220.534 250.077 225.3 216.225 244.362Z" fill="white"/>
<path d="M274.973 329.403C274.361 329.433 275.636 329.371 274.973 329.403ZM274.973 329.403C257.831 330.213 222.464 331.301 211.706 329.403C197.738 326.938 173.91 268.19 216.225 244.362C250.077 225.3 306.195 220.534 330.022 220.534L407.669 231.216L274.973 329.403Z" stroke="black" stroke-width="1.62158"/>
<path d="M227.727 252.427C256.977 246.84 280.723 264.021 288.94 273.31C290.312 271.39 291.796 269.493 293.398 267.627C290.873 256.535 241.695 244.621 227.727 252.427Z" fill="#000001"/>
<path d="M272.007 330.618C273.045 330.573 274.036 330.528 274.972 330.484L383.355 250.288C378.58 248.673 366.274 243.704 355.247 236.75C280.439 245.615 268.583 303.023 272.007 330.618Z" fill="#0E1729"/>
<path d="M395.754 330.483C449.571 313.229 407.668 235.172 407.668 232.296L387.537 229.527C284.995 235.857 269.767 299.468 274.971 330.483L292.276 473.039H336.87L340.703 330.483H395.754Z" fill="white" stroke="black" stroke-width="1.62158"/>
<path d="M330.022 300.904C336.596 307.477 339.882 323.363 340.704 330.484H346.866C345.223 322.404 339.553 305.177 330.022 300.904Z" fill="#000001"/>
<rect x="145.5" y="330" width="351" height="2" fill="black"/>
<path d="M338.361 81.3777C336.197 78.6236 330.571 70.1647 325.377 58.3617C326.558 56.9845 328.8 52.8139 328.328 47.1484C322.191 46.2042 318.471 32.9847 317.379 26.493C325.529 21.972 318.584 9.91153 321.246 9.37883C324.197 8.78838 331.869 11.7392 331.869 19.4112C331.869 27.0832 345.014 23.4618 348.393 21.7718C356.655 17.6407 353.705 27.6739 350.164 37.1161C348.275 40.421 354.885 46.7553 358.426 49.5093C359.37 58.9518 350.951 73.509 346.623 79.6072C347.213 97.3119 347.331 132.721 343.082 132.721C340.249 127.056 338.754 96.1315 338.361 81.3777Z" fill="white" stroke="black" stroke-width="1.08105"/>
<path d="M333.048 27.6699C332.065 28.6535 330.688 31.4469 333.048 34.7518" stroke="#241715" stroke-width="0.540525"/>
<path d="M337.769 36.5266C337.376 38.6905 335.644 41.956 331.867 37.7069" stroke="#241715" stroke-width="0.540525"/>
<path d="M350.753 29.4421C351.539 27.2782 352.523 23.0684 350.162 23.5405" stroke="#241715" stroke-width="0.540525"/>
<path d="M327.698 53.6389C328.218 51.837 328.535 49.6365 328.327 47.1474C331.598 48.9181 337.179 49.5083 348.982 41.2456C349.453 47.3832 334.989 52.0651 327.698 53.6389Z" fill="black"/>
<path d="M357.835 9.37822C361.966 19.4109 352.524 32.9844 350.163 37.1155C353.704 27.6733 356.064 17.6401 348.393 21.7712C345.065 23.5628 331.868 27.0826 331.868 19.4106C331.868 11.7385 324.196 8.78777 321.245 9.37822C318.583 9.91092 325.528 21.9714 317.378 26.4924C316.495 26.9826 315.434 27.3841 314.164 27.6727C317.114 23.5416 315.934 24.1318 313.573 14.0992C311.213 4.06653 321.836 1.70621 331.868 0.525906C341.901 -0.654403 353.704 -0.654403 357.835 9.37822Z" fill="black"/>
<path d="M413.309 73.1157C405.755 63.2011 373.572 53.2472 358.425 49.5095C359.369 58.952 350.949 73.5091 346.622 79.6074C347.212 97.312 347.33 132.721 343.081 132.721C340.248 127.056 338.753 96.1317 338.36 81.3779C336.196 78.6238 330.57 70.1649 325.376 58.3618C324.196 61.9028 292.328 86.0991 287.016 93.7711C281.705 101.443 279.934 175.212 279.934 181.704C279.934 188.196 277.574 232.457 297.049 232.457C312.629 232.457 376.326 234.621 408.588 235.408C413.309 185.442 420.863 83.0303 413.309 73.1157Z" fill="black"/>
<path d="M279.936 181.7C312.198 175.012 376.721 167.655 376.721 191.733C376.721 215.811 346.82 229.419 331.87 233.213M376.721 54.7615C372.787 56.5505 364.446 64.9679 362.558 84.3249C360.197 108.521 352.62 116.783 346.481 116.783M340.457 117.964C335.43 120.718 324.434 122.803 320.657 109.111C315.935 91.9969 306.085 82.5545 295.076 85.5052M394.426 61.3093C393.246 60.8098 374.361 73.7021 372.59 103.21C370.82 132.718 351.935 188.192 312.985 158.684C298.23 143.93 284.013 134.685 281.626 135.668M325.378 233.035C330.689 227.923 339.896 216.047 334.23 209.438C328.565 202.828 297.576 211.798 282.789 217.11M416.143 88.456C403.396 96.3247 379.908 121.387 387.934 158.684C395.016 179.93 407.958 177.766 413.543 174.028M411.408 202.946C403.78 203.047 389.233 209.591 392.065 234.965" stroke="white" stroke-width="0.540525"/>
<path d="M343.081 232.452V133.306" stroke="#027269" stroke-width="0.540525"/>
<path d="M343.435 231.487L340.535 209.922C333.94 211.118 320.204 212.277 309.593 213.283C298.485 214.336 295.686 220.168 303.142 222.03C299.242 221.544 294.876 226.921 301.099 229.329C296.534 230.95 305.563 232.759 309.989 232.768C307.456 233.151 303.064 233.857 303.661 236.541C304.258 239.225 330.426 234.29 343.435 231.487Z" fill="white"/>
<path d="M343.436 231.487L340.535 209.922C339.001 210.201 337.08 210.477 334.902 210.75L328.304 234.49C333.848 233.482 339.305 232.377 343.436 231.487Z" fill="black"/>
<path d="M310.17 232.927L319.346 230.344" stroke="black" stroke-width="0.540525"/>
<path d="M303.201 227.164L319.289 225.212" stroke="black" stroke-width="0.540525"/>
<path d="M303.143 222.03L319.574 219.188" stroke="black" stroke-width="0.540525"/>
<path d="M430.818 212.549C432.246 189.948 433.805 76.0491 408.31 69.9093C378.841 62.8122 379.227 171.434 392.021 196.215L331.844 202.332L337.491 239.877C366.747 237.834 428.455 249.949 430.818 212.549Z" fill="black"/>
<path d="M408.31 69.9089C378.84 62.8118 379.227 171.434 392.02 196.214L331.844 202.331" stroke="white" stroke-width="0.540525"/>
<path d="M420.585 86.2772C411.479 87.2675 391.242 92.5247 386.278 104.848M426.251 106.107C418.045 109.696 398.832 121.78 396.409 134.184C393.985 146.588 419.652 142.4 430.028 140.1M430.658 161.818C422.033 165.845 391.799 168.518 385.019 159.3M430.972 200.533C422.139 195.173 396.709 184.472 390.055 188.573M366.133 198.645C362.356 206.828 368.272 236.92 385.019 240.192" stroke="white" stroke-width="0.540525"/>
<path d="M172.7 155.671H274.047C275.823 155.671 277.418 156.757 278.07 158.409L308.169 234.707C308.821 236.359 310.416 237.444 312.192 237.444H391.022C392.472 237.444 393.648 238.62 393.648 240.07C393.648 241.52 392.472 242.696 391.022 242.696H203.781C202.008 242.696 200.414 241.614 199.761 239.966L168.681 161.59C167.555 158.751 169.647 155.671 172.7 155.671Z" fill="white" stroke="black" stroke-width="1.62158"/>
<path d="M277.608 157.159L310.948 237.444H308.696C306.95 237.444 305.375 236.394 304.704 234.783L273.151 159.013C272.489 157.423 273.657 155.671 275.379 155.671C276.354 155.671 277.234 156.258 277.608 157.159Z" fill="black"/>
<path d="M199.761 239.966L168.681 161.59C167.555 158.751 169.647 155.671 172.7 155.671H180.515C181.158 155.671 181.791 155.815 182.376 156.084C185.142 157.358 189.763 159.361 197.437 163.239C223.112 176.211 226.355 203.778 220.95 217.291C216.568 228.246 274.489 239.57 297.246 242.696H203.781C202.008 242.696 200.414 241.614 199.761 239.966Z" fill="black"/>
<ellipse cx="6.44706" cy="7.41412" rx="6.44706" ry="7.41412" transform="matrix(-0.936312 0.351169 0.351169 0.936312 238.174 182.698)" fill="black"/>
</g>
<defs>
<clipPath id="clip0_144_492">
<rect width="495.215" height="332" fill="white" transform="translate(0.392639)"/>
</clipPath>
</defs>
</svg>
