<svg width="57" height="56" viewBox="0 0 57 56" fill="none" xmlns="http://www.w3.org/2000/svg">
<path d="M0.0999756 56V0H56.1V56H0.0999756Z" fill="black"/>
<path d="M36.7147 41.9176C37.7912 43.666 38.9609 45.3414 41.4389 45.3414C43.5203 45.3414 44.6123 44.3069 44.6123 42.8758C44.6123 41.1631 43.4829 40.5549 41.1932 39.5578L39.9378 39.0227C36.3149 37.4858 33.9054 35.56 33.9054 31.4923C33.9054 27.7434 36.7754 24.8905 41.26 24.8905C44.4536 24.8905 46.748 25.9965 48.4032 28.8929L44.4925 31.3927C43.6323 29.8558 42.702 29.2507 41.26 29.2507C39.7885 29.2507 38.8567 30.1794 38.8567 31.3927C38.8567 32.8922 39.79 33.4989 41.9445 34.4276L43.1998 34.9627C47.4698 36.7811 49.8778 38.6385 49.8778 42.8136C49.8778 47.3122 46.3249 49.7778 41.5556 49.7778C36.8905 49.7778 34.2414 47.4367 32.7667 44.5387L36.7147 41.9176ZM18.692 42.0451C19.4792 43.4545 20.6754 44.5387 22.3958 44.5387C24.0416 44.5387 24.9889 43.8885 24.9889 41.3607V24.8889H30.1736V42.1571C30.1736 47.3947 27.1356 49.7778 22.6992 49.7778C18.6905 49.7778 15.7972 47.0618 14.618 44.5387L18.692 42.0451Z" fill="white"/>
</svg>
