<svg width="57" height="56" viewBox="0 0 57 56" fill="none" xmlns="http://www.w3.org/2000/svg">
<path d="M50.1334 25.7833L31.1167 6.76659C30.5334 6.18325 29.7167 5.83325 28.9001 5.83325C28.0834 5.83325 27.2667 6.18325 26.6834 6.76659L22.6001 10.8499L27.3834 15.6333C27.8501 15.3999 28.3167 15.2833 28.9001 15.2833C30.8834 15.2833 32.4001 16.7999 32.4001 18.7833C32.4001 19.3666 32.2834 19.8333 32.0501 20.2999L36.7167 24.9666C37.1834 24.7333 37.6501 24.6166 38.2334 24.6166C40.2167 24.6166 41.7334 26.1333 41.7334 28.1166C41.7334 30.0999 40.2167 31.6166 38.2334 31.6166C36.2501 31.6166 34.7334 30.0999 34.7334 28.1166C34.7334 27.5333 34.8501 27.0666 35.0834 26.5999L30.4167 21.9333C30.3001 21.9333 30.1834 22.0499 30.0667 22.0499V34.1833C31.4667 34.6499 32.4001 35.9333 32.4001 37.4499C32.4001 39.4333 30.8834 40.9499 28.9001 40.9499C26.9167 40.9499 25.4001 39.4333 25.4001 37.4499C25.4001 35.9333 26.3334 34.6499 27.7334 34.1833V21.9333C26.3334 21.4666 25.4001 20.1833 25.4001 18.6666C25.4001 18.0833 25.5167 17.6166 25.7501 17.1499L20.9667 12.3666L7.66673 25.7833C7.0834 26.3666 6.7334 27.1833 6.7334 27.9999C6.7334 28.8166 7.0834 29.6333 7.66673 30.2166L26.6834 49.2333C27.2667 49.8166 28.0834 50.1666 28.9001 50.1666C29.7167 50.1666 30.5334 49.8166 31.1167 49.2333L50.1334 30.2166C50.7167 29.6333 51.0667 28.8166 51.0667 27.9999C51.0667 27.1833 50.7167 26.3666 50.1334 25.7833Z" fill="black"/>
</svg>
